# xmcd
#
# Track frame offsets:
#	150
#	11243
#	20197
#	28137
#	39144
#	47867
#	58282
#	71021
#	81976
#	94400
#	105679
#	120079
#	133062
#	148388
#	159710
#	181497
#
# Disc length: 2711 seconds
#
# Revision: 1
# Processed by: cddbd v1.5.1PL2 Copyright (c) Steve Scherf et al.
# Submitted via: EasyCDDAExtractor 6.0.0.1
#
DISCID=ee0a9510
DTITLE=Lee Dorsey - Working in a Coal Mine: The Very Best of Lee Dorsey
DYEAR=2001
DGENRE=R&B
TTITLE0=Ya Ya
TTITLE1=Do-Re-Mi
TTITLE2=Hoodlum Joe
TTITLE3=Messed Around (And Fell in Love)
TTITLE4=Great Googa Mooga
TTITLE5=People Sure Act Funny
TTITLE6=Ride Your Pony
TTITLE7=Get Out of my Life Woman
TTITLE8=Working in the Coal Mine
TTITLE9=Holy Cow
TTITLE10=Everything I Do Gone Be Funky (From Now On)
TTITLE11=Sneakin' Sally Through the Alley
TTITLE12=Tears, Tears and More Tears
TTITLE13=If She Won't
TTITLE14=Can I Be The One
TTITLE15=Yes We Can, Part 1
EXTD=
EXTT0=
EXTT1=
EXTT2=
EXTT3=
EXTT4=
EXTT5=
EXTT6=
EXTT7=
EXTT8=
EXTT9=
EXTT10=
EXTT11=
EXTT12=
EXTT13=
EXTT14=
EXTT15=
PLAYORDER=
